PathFileType	4	(X/Y/Z)	/Users/itak/Documents/Research/Walk-IL/dataset/trc/00474_00167.trc
DataRate	CameraRate	NumFrames	NumMarkers	Units	OrigDataRate	OrigDataStartFrame	OrigNumFrames
100.000000	100.000000	4	53	mm	100.000000	423	564
Frame#	Time	RPSI			LPSI			L3			STRN			T10			C7			CLAV			RBAK			LBAK			LSHO			LUPA			LAEL			LAOL			LWTS			LWPS			LFRA			LIFD			LHPS			LHTS			RSHO			RUPA			RAEL			RAOL			RWTS			RWPS			RFRA			RIFD			RHTS			RHPS			RBHD			LFHD			RFHD			LBHD			LHIP			RHIP			RASI			LASI			LKNE			LTHI			LANK			LTIP			LTOE			LMT1			LMT5			LHEE			RKNE			RTHI			RANK			RTIP			RTOE			RMT1			RMT5			RHEE			
		X1	Y1	Z1	X2	Y2	Z2	X3	Y3	Z3	X4	Y4	Z4	X5	Y5	Z5	X6	Y6	Z6	X7	Y7	Z7	X8	Y8	Z8	X9	Y9	Z9	X10	Y10	Z10	X11	Y11	Z11	X12	Y12	Z12	X13	Y13	Z13	X14	Y14	Z14	X15	Y15	Z15	X16	Y16	Z16	X17	Y17	Z17	X18	Y18	Z18	X19	Y19	Z19	X20	Y20	Z20	X21	Y21	Z21	X22	Y22	Z22	X23	Y23	Z23	X24	Y24	Z24	X25	Y25	Z25	X26	Y26	Z26	X27	Y27	Z27	X28	Y28	Z28	X29	Y29	Z29	X30	Y30	Z30	X31	Y31	Z31	X32	Y32	Z32	X33	Y33	Z33	X34	Y34	Z34	X35	Y35	Z35	X36	Y36	Z36	X37	Y37	Z37	X38	Y38	Z38	X39	Y39	Z39	X40	Y40	Z40	X41	Y41	Z41	X42	Y42	Z42	X43	Y43	Z43	X44	Y44	Z44	X45	Y45	Z45	X46	Y46	Z46	X47	Y47	Z47	X48	Y48	Z48	X49	Y49	Z49	X50	Y50	Z50	X51	Y51	Z51	X52	Y52	Z52	X53	Y53	Z53	

424	4.23	55.44154739379883	931.275146484375	-378.047607421875	49.49094390869141	937.214599609375	-235.409912109375	41.06647491455078	1043.487548828125	-314.0449523925781	-234.3205108642578	1244.897216796875	-330.38134765625	50.79288482666016	1167.522094726562	-309.4430847167969	-11.04447269439697	1436.576416015625	-337.65380859375	-195.1565551757812	1357.145751953125	-333.2847595214844	56.19337844848633	1308.450561523438	-417.3986206054688	15.04573059082031	1394.06201171875	-234.7795715332031	-91.92621612548828	1424.033447265625	-166.3521728515625	-93.68518829345703	1324.076904296875	-52.78909683227539	-138.8919067382812	1122.920776367188	13.52716636657715	-47.08966445922852	1087.289672851562	-21.81941032409668	-260.2172241210938	965.6279296875	-82.04618835449219	-244.7475128173828	933.5776977539062	-16.56616020202637	-189.7880401611328	1047.242309570312	5.562980175018311	-325.2706909179688	820.27685546875	-90.02822113037109	-279.5266723632812	866.2099609375	-26.28239059448242	-310.0122375488281	893.5425415039062	-85.74077606201172	-62.06325149536133	1399.588500976562	-497.8018188476562	-34.99271392822266	1340.203979492188	-569.5225219726562	-25.82658004760742	1059.662231445312	-640.3807983398438	15.94016933441162	1036.398681640625	-592.0283813476562	-155.3167266845703	869.2210693359375	-631.2989501953125	-80.19235229492188	847.08447265625	-672.4689331054688	-32.39173126220703	1002.144897460938	-654.3473510742188	-180.2630157470703	718.6032104492188	-662.6930541992188	-183.5135650634766	779.1768188476562	-659.0813598632812	-109.3793563842773	767.1713256835938	-686.631103515625	-127.0236358642578	1630.86572265625	-443.9011840820312	-272.5018920898438	1623.723876953125	-297.3532409667969	-263.4424438476562	1617.6201171875	-427.5716247558594	-124.6506729125977	1647.3984375	-267.1751403808594	-96.68547058105469	846.0435180664062	-120.4960098266602	-79.83328247070312	853.8104248046875	-524.8306274414062	-169.9098052978516	907.5927734375	-454.2593383789062	-188.6208038330078	892.0750732421875	-200.9607238769531	-126.0360412597656	425.2734375	-183.4186706542969	-146.3916168212891	581.0028686523438	-156.5909729003906	48.2599983215332	40.90776062011719	-168.6046295166016	-85.21202850341797	272.1679382324219	-172.3200378417969	-162.5442199707031	39.70647811889648	-285.6207275390625	-84.89049530029297	41.31800079345703	-295.927978515625	-103.3219528198242	44.05782318115234	-183.1422576904297	104.7489166259766	45.41501998901367	-222.0237121582031	-291.5780639648438	522.8497314453125	-540.1884155273438	-178.0481719970703	753.8272705078125	-543.5704345703125	-122.2037963867188	112.1197204589844	-550.2164306640625	-259.7549438476562	378.629150390625	-556.092529296875	-328.7554931640625	71.66664123535156	-495.6136779785156	-263.5087585449219	83.66117095947266	-462.8738708496094	-248.7798461914062	72.62507629394531	-564.5944213867188	-56.36032485961914	133.1162261962891	-509.26416015625	
425	4.24	46.9773063659668	929.51806640625	-379.3507690429688	41.46107482910156	935.5576171875	-236.8068542480469	33.43508148193359	1042.1220703125	-315.2244567871094	-242.0049896240234	1243.512451171875	-331.5466003417969	43.05879974365234	1166.232421875	-310.5858764648438	-18.95178985595703	1435.169921875	-339.0682678222656	-202.7634735107422	1355.755859375	-334.9150085449219	48.46201324462891	1306.87744140625	-418.4986877441406	7.069728374481201	1393.045288085938	-235.8667297363281	-100.3054428100586	1423.044189453125	-167.8505401611328	-103.4588241577148	1322.943115234375	-54.44026184082031	-151.5422515869141	1122.433959960938	11.29761505126953	-59.95282363891602	1085.4560546875	-23.29140090942383	-274.4063720703125	967.143798828125	-85.42838287353516	-260.0774230957031	934.8969116210938	-19.7724723815918	-203.4641418457031	1047.593505859375	2.8560631275177	-341.6856079101562	822.9199829101562	-94.01631927490234	-295.8430786132812	868.0980224609375	-29.75692749023438	-325.3907470703125	895.862548828125	-89.45302581787109	-69.70281219482422	1397.613525390625	-499.3099670410156	-42.49057388305664	1338.056640625	-570.7772216796875	-32.53849792480469	1057.525756835938	-641.2474975585938	9.166436195373535	1034.619506835938	-592.671875	-160.21142578125	865.664794921875	-632.6630859375	-84.68714904785156	844.4395751953125	-673.5808715820312	-38.58189392089844	999.9863891601562	-655.2321166992188	-182.6934509277344	714.5016479492188	-664.0360107421875	-187.1053924560547	775.0191040039062	-660.1853637695312	-112.6240386962891	764.0633544921875	-687.5553588867188	-135.2632141113281	1628.963745117188	-446.3252868652344	-280.935546875	1621.900024414062	-299.9476013183594	-271.6679992675781	1615.3193359375	-430.1396484375	-133.2094573974609	1646.123413085938	-269.6497192382812	-104.2623443603516	844.971435546875	-121.2877731323242	-89.03816986083984	852.9449462890625	-525.7032470703125	-178.876220703125	907.123046875	-454.9260864257812	-196.4706268310547	890.8152465820312	-201.4964294433594	-129.5506591796875	424.0595092773438	-183.9322052001953	-151.7471466064453	579.8447265625	-157.6169128417969	48.30841445922852	41.1546630859375	-168.9416351318359	-87.21719360351562	271.2723083496094	-172.8098297119141	-162.7267761230469	39.63082885742188	-285.6364135742188	-84.99408721923828	41.27922058105469	-296.0067138671875	-103.2872543334961	44.05463409423828	-183.1795806884766	104.6781921386719	45.71341705322266	-222.3951568603516	-303.3243103027344	523.39892578125	-540.0162353515625	-187.7250366210938	753.4957275390625	-544.4805297851562	-156.6224060058594	104.3739776611328	-556.6339721679688	-278.7496337890625	378.0767822265625	-558.0454711914062	-365.4183349609375	74.54407501220703	-502.7678527832031	-299.5660095214844	82.396240234375	-469.8336486816406	-285.2281494140625	72.01484680175781	-571.5734252929688	-89.68167877197266	121.240966796875	-515.5260009765625	
426	4.25	38.38913345336914	927.7626953125	-380.7245483398438	33.35352325439453	933.9315795898438	-238.2749481201172	25.64773368835449	1040.66552734375	-316.4947204589844	-249.8065948486328	1242.03271484375	-332.7889099121094	35.205078125	1164.84375	-311.8185424804688	-26.97091293334961	1433.659545898438	-340.60498046875	-210.5170593261719	1354.275756835938	-336.6072387695312	40.57040786743164	1305.20947265625	-419.7320556640625	-0.9829325675964355	1391.921997070312	-237.0914154052734	-108.702522277832	1421.96142578125	-169.4652557373047	-113.1434173583984	1321.723388671875	-56.21384048461914	-163.9447937011719	1121.838012695312	8.866650581359863	-72.64414978027344	1083.544555664062	-25.13015937805176	-288.4453735351562	968.6392211914062	-88.93321990966797	-275.1555480957031	936.1702270507812	-23.17795944213867	-216.8819885253906	1047.861083984375	-0.03535317629575729	-357.9761352539062	825.5859985351562	-98.12559509277344	-311.9342041015625	869.965087890625	-33.4215202331543	-340.54443359375	898.2160034179688	-93.37284851074219	-77.48633575439453	1395.588256835938	-500.8995056152344	-50.14957046508789	1335.868530273438	-572.1309814453125	-39.32193374633789	1055.332763671875	-642.0899047851562	2.329178810119629	1032.815063476562	-593.2847900390625	-165.0170593261719	861.9607543945312	-633.8516235351562	-89.11106872558594	841.6840209960938	-674.5459594726562	-44.81599807739258	997.7577514648438	-656.0606079101562	-185.1335601806641	710.3173217773438	-665.0418701171875	-190.5899353027344	770.73828125	-661.0558471679688	-115.7547149658203	760.8479614257812	-688.3082275390625	-143.6389007568359	1626.972412109375	-448.7908020019531	-289.4677734375	1619.938110351562	-302.5127258300781	-280.0180969238281	1612.919189453125	-432.6998596191406	-141.8426361083984	1644.717163085938	-272.1589050292969	-111.8061141967773	843.8429565429688	-122.1318588256836	-98.25473022460938	851.8869018554688	-526.5609130859375	-187.9492645263672	906.42919921875	-455.6416931152344	-204.3581237792969	889.467041015625	-202.051025390625	-133.1278228759766	422.8411865234375	-184.4582672119141	-157.1207427978516	578.6338500976562	-158.59716796875	48.33438873291016	41.43235778808594	-169.3175964355469	-89.25704193115234	270.3904418945312	-173.2948150634766	-162.9269256591797	39.54251098632812	-285.6580200195312	-85.10688781738281	41.24899673461914	-296.0776672363281	-103.2550201416016	44.03420639038086	-183.2077484130859	104.6434631347656	46.07534790039062	-222.7821807861328	-314.3036804199219	523.2738647460938	-539.8338623046875	-197.2368774414062	752.7979736328125	-545.3882446289062	-191.4015808105469	97.25709533691406	-563.0014038085938	-297.3414916992188	377.256103515625	-559.8973388671875	-401.9318237304688	78.09278869628906	-509.5453186035156	-335.617431640625	81.76673126220703	-476.5342712402344	-321.7121276855469	72.01502990722656	-578.2660522460938	-123.7369537353516	109.6605224609375	-521.6766357421875	
427	4.26	29.65933799743652	926.0001831054688	-382.16943359375	25.15719032287598	932.3394775390625	-239.8200378417969	17.67414093017578	1039.103515625	-317.84619140625	-257.7283020019531	1240.447875976562	-334.1181945800781	27.25010681152344	1163.33349609375	-313.1161193847656	-35.09540557861328	1432.029418945312	-342.259521484375	-218.4112396240234	1352.696411132812	-338.3606262207031	32.5180549621582	1303.428100585938	-421.0961608886719	-9.11602783203125	1390.675537109375	-238.4461669921875	-117.1229019165039	1420.774536132812	-171.1942596435547	-122.7370681762695	1320.4072265625	-58.09743881225586	-176.0771331787109	1121.115844726562	6.267134189605713	-85.13564300537109	1081.546997070312	-27.31138229370117	-302.3189697265625	970.1124877929688	-92.53646087646484	-289.9559631347656	937.376708984375	-26.7692756652832	-230.0193176269531	1048.021484375	-3.08771014213562	-374.1145935058594	828.272216796875	-102.3618011474609	-327.7762451171875	871.7962036132812	-37.27559280395508	-355.4617614746094	900.6010131835938	-97.48312377929688	-85.40787506103516	1393.5	-502.5692443847656	-57.96076965332031	1333.633544921875	-573.5878295898438	-46.1729850769043	1053.070068359375	-642.914794921875	-4.577803611755371	1030.968139648438	-593.8695068359375	-169.76123046875	858.114990234375	-634.864013671875	-93.48258209228516	838.8167724609375	-675.3660888671875	-51.09720993041992	995.4461669921875	-656.8373413085938	-187.6399383544922	706.0928344726562	-665.7462158203125	-193.9757537841797	766.3460693359375	-661.7190551757812	-118.8054351806641	757.5330810546875	-688.8963623046875	-152.1399536132812	1624.881591796875	-451.2936706542969	-298.0945129394531	1617.836059570312	-305.0522155761719	-288.4840698242188	1610.421752929688	-435.2580261230469	-150.5407562255859	1643.169555664062	-274.7055053710938	-119.3204040527344	842.6651000976562	-123.0222930908203	-107.4986038208008	850.6210327148438	-527.3954467773438	-197.1423492431641	905.4886474609375	-456.3926086425781	-212.3151550292969	888.0418701171875	-202.6154479980469	-136.7762298583984	421.6155090332031	-184.9891662597656	-162.5088806152344	577.3684692382812	-159.5135192871094	48.33700561523438	41.74853134155273	-169.7278137207031	-91.34236907958984	269.5223999023438	-173.7660675048828	-163.1417388916016	39.44197082519531	-285.6816101074219	-85.22409820556641	41.22871017456055	-296.1416320800781	-103.2278671264648	43.9927978515625	-183.2317199707031	104.6359252929688	46.51637649536133	-223.18505859375	-324.5575256347656	522.416015625	-539.7084350585938	-206.5968475341797	751.7144775390625	-546.289794921875	-226.4255523681641	90.84798431396484	-569.1515502929688	-315.5400695800781	376.1748352050781	-561.6565551757812	-438.0828552246094	82.33396148681641	-515.719482421875	-371.4732666015625	81.88897705078125	-482.7665710449219	-358.0783386230469	72.66555023193359	-584.474853515625	-158.3610229492188	98.55550384521484	-527.6409301757812	
